<?xml version="1.0" standalone="no"?>
<!DOCTYPE svg PUBLIC "-//W3C//DTD SVG 20010904//EN"
 "http://www.w3.org/TR/2001/REC-SVG-20010904/DTD/svg10.dtd">
<svg version="1.0" xmlns="http://www.w3.org/2000/svg"
 width="4840.000000pt" height="2860.000000pt" viewBox="0 0 3840.000000 2160.000000"
 preserveAspectRatio="xMidYMid meet">
<metadata>
Created by potrace 1.16, written by Peter Selinger 2001-2019
</metadata>
<g transform="translate(0.000000,2160.000000) scale(0.100000,-0.100000)"
fill="#d3b4b4" stroke="none">
<path d="M18865 19794 c-22 -2 -116 -8 -210 -14 -627 -39 -1298 -156 -1885
-327 -362 -105 -535 -164 -845 -288 -593 -237 -1128 -518 -1665 -875 -959
-637 -1833 -1508 -2480 -2470 -674 -1005 -1134 -2112 -1366 -3290 -72 -369
-134 -859 -149 -1180 -3 -69 -8 -167 -11 -218 -9 -135 -10 -426 -3 -582 4 -74
10 -207 13 -295 10 -224 45 -553 91 -855 8 -52 17 -112 20 -133 3 -22 10 -58
15 -80 5 -23 19 -91 30 -152 67 -355 174 -757 299 -1125 54 -159 173 -480 206
-555 8 -16 36 -82 63 -145 307 -711 736 -1424 1220 -2029 202 -252 640 -737
758 -840 21 -19 91 -83 154 -142 99 -92 302 -271 365 -322 11 -8 49 -40 85
-70 36 -30 99 -80 140 -112 118 -90 262 -198 295 -221 334 -236 686 -458 935
-588 36 -19 99 -53 140 -75 77 -42 271 -138 395 -196 60 -28 119 -54 270 -120
152 -66 523 -204 710 -264 39 -13 79 -26 90 -31 34 -14 285 -85 385 -110 19
-4 80 -20 135 -34 55 -15 129 -33 165 -41 229 -49 341 -71 519 -100 51 -9 96
-17 100 -19 3 -2 35 -7 71 -11 78 -8 191 -25 199 -29 3 -2 56 -7 116 -11 61
-4 126 -10 145 -15 19 -5 103 -11 185 -15 83 -3 168 -8 190 -10 242 -24 807
-24 980 0 17 2 93 7 170 10 142 6 328 24 510 50 55 8 125 17 155 20 79 10 390
65 555 99 182 37 456 103 530 127 17 5 71 21 120 35 337 96 786 257 1033 370
29 13 55 24 57 24 8 0 134 59 360 170 760 373 1501 878 2095 1429 543 502 984
1009 1357 1557 761 1117 1237 2297 1458 3613 34 202 78 562 90 731 3 47 8 103
10 125 15 146 18 257 18 635 0 472 -20 791 -74 1190 -5 41 -12 91 -15 110 -95
710 -344 1590 -639 2260 -25 58 -55 128 -67 155 -23 53 -288 583 -313 625 -8
14 -67 115 -131 225 -215 368 -560 862 -806 1153 -271 321 -326 381 -608 662
-202 202 -506 479 -636 581 -22 16 -73 56 -114 89 -118 94 -328 252 -410 309
-196 136 -566 373 -697 446 -20 11 -150 83 -233 128 -30 17 -157 81 -281 143
-310 154 -602 279 -974 414 -105 38 -456 150 -555 176 -159 43 -363 95 -405
104 -22 4 -114 24 -205 43 -304 65 -775 133 -1050 153 -47 3 -132 10 -190 15
-103 10 -907 20 -985 13z m4235 -5374 c0 -940 -3 -1710 -7 -1710 -3 0 -43 26
-87 58 -45 32 -103 73 -131 92 -129 87 -295 199 -340 231 -27 19 -86 59 -130
89 -44 30 -82 57 -85 60 -3 3 -13 10 -22 15 -25 15 -301 203 -367 251 -31 22
-144 100 -252 172 l-196 132 -879 -2 -879 -3 -2 -1145 c-2 -637 1 -1148 6
-1153 5 -5 25 0 47 11 22 11 73 32 114 46 41 15 89 33 105 40 33 15 77 32 320
126 88 34 174 67 190 74 17 7 57 23 90 36 33 12 69 26 80 31 11 4 85 34 165
64 200 78 432 168 577 226 67 27 129 49 137 49 14 0 16 -190 16 -1845 0 -1750
-1 -1845 -18 -1845 -9 0 -30 7 -47 16 -16 9 -73 35 -125 59 -105 47 -172 78
-425 197 -93 44 -210 98 -260 120 -49 23 -146 67 -214 99 -68 33 -125 59 -127
59 -2 0 -43 19 -91 41 -406 191 -545 251 -554 242 -6 -6 -8 -583 -7 -1439 l3
-1429 35 -35 c30 -30 230 -251 288 -317 54 -63 281 -315 448 -498 50 -55 126
-140 170 -190 43 -49 81 -92 84 -95 7 -7 92 -101 180 -199 41 -46 100 -111
130 -144 30 -32 57 -63 58 -68 2 -5 -1105 -9 -2662 -9 -1466 0 -2666 2 -2666
5 0 5 117 148 471 575 138 167 204 248 307 375 31 39 59 72 62 75 5 4 56 66
229 279 29 36 84 102 121 146 37 44 72 90 78 102 9 16 12 398 12 1517 l0 1494
-37 34 c-20 18 -64 60 -98 93 -204 196 -277 267 -435 415 -96 91 -215 204
-264 251 l-89 87 126 123 c152 150 635 619 731 710 l68 65 2 1473 1 1474 -97
156 c-137 219 -131 210 -170 271 -19 30 -99 159 -178 285 -79 127 -162 259
-185 295 -108 170 -131 205 -140 221 -5 10 -37 61 -70 114 -33 52 -69 110 -79
128 -11 17 -40 64 -64 102 -138 216 -202 320 -202 328 0 4 1627 7 3615 7
l3615 0 0 -1710z"/>
</g>
</svg>
